ply
format ascii 1.0
comment Created by Blender 2.79 (sub 0) - www.blender.org, source file: 'background.blend'
element vertex 216
property float x
property float y
property float z
element face 108
property list uchar int vertex_indices
end_header
-3.521136 1.886907 0.440000
-3.521136 2.886907 -0.560000
-3.521136 1.886907 -0.560000
-3.521136 2.886907 0.440000
-2.521136 2.886907 -0.560000
-3.521136 2.886907 -0.560000
-2.521136 2.886907 0.440000
-2.521136 1.886907 -0.560000
-2.521136 2.886907 -0.560000
-2.521136 1.886907 0.440000
-3.521136 1.886907 -0.560000
-2.521136 1.886907 -0.560000
-2.521136 2.886907 -0.560000
-3.521136 1.886907 -0.560000
-3.521136 2.886907 -0.560000
-3.521136 2.886907 0.440000
-2.521136 1.886907 0.440000
-2.521136 2.886907 0.440000
-4.131137 -1.173093 0.480000
-4.131137 -0.173093 -0.520000
-4.131137 -1.173093 -0.520000
-4.131137 -0.173093 0.480000
-3.131137 -0.173093 -0.520000
-4.131137 -0.173093 -0.520000
-3.131137 -0.173093 0.480000
-3.131137 -1.173093 -0.520000
-3.131137 -0.173093 -0.520000
-3.131137 -1.173093 0.480000
-4.131137 -1.173093 -0.520000
-3.131137 -1.173093 -0.520000
-3.131137 -0.173093 -0.520000
-4.131137 -1.173093 -0.520000
-4.131137 -0.173093 -0.520000
-4.131137 -0.173093 0.480000
-3.131137 -1.173093 0.480000
-3.131137 -0.173093 0.480000
1.378864 -3.793093 0.510000
1.378864 -2.793093 -0.490000
1.378864 -3.793093 -0.490000
1.378864 -2.793093 0.510000
2.378864 -2.793093 -0.490000
1.378864 -2.793093 -0.490000
2.378864 -2.793093 0.510000
2.378864 -3.793093 -0.490000
2.378864 -2.793093 -0.490000
2.378864 -3.793093 0.510000
1.378864 -3.793093 -0.490000
2.378864 -3.793093 -0.490000
2.378864 -2.793093 -0.490000
1.378864 -3.793093 -0.490000
1.378864 -2.793093 -0.490000
1.378864 -2.793093 0.510000
2.378864 -3.793093 0.510000
2.378864 -2.793093 0.510000
2.538864 -1.023093 0.690000
2.538864 -0.023093 -0.310000
2.538864 -1.023093 -0.310000
2.538864 -0.023093 0.690000
3.538864 -0.023093 -0.310000
2.538864 -0.023093 -0.310000
3.538864 -0.023093 0.690000
3.538864 -1.023093 -0.310000
3.538864 -0.023093 -0.310000
3.538864 -1.023093 0.690000
2.538864 -1.023093 -0.310000
3.538864 -1.023093 -0.310000
3.538864 -0.023093 -0.310000
2.538864 -1.023093 -0.310000
2.538864 -0.023093 -0.310000
2.538864 -0.023093 0.690000
3.538864 -1.023093 0.690000
3.538864 -0.023093 0.690000
-4.141136 0.396907 0.660000
-4.141136 1.396907 -0.340000
-4.141136 0.396907 -0.340000
-4.141136 1.396907 0.660000
-3.141136 1.396907 -0.340000
-4.141136 1.396907 -0.340000
-3.141136 1.396907 0.660000
-3.141136 0.396907 -0.340000
-3.141136 1.396907 -0.340000
-3.141136 0.396907 0.660000
-4.141136 0.396907 -0.340000
-3.141136 0.396907 -0.340000
-3.141136 1.396907 -0.340000
-4.141136 0.396907 -0.340000
-4.141136 1.396907 -0.340000
-4.141136 1.396907 0.660000
-3.141136 0.396907 0.660000
-3.141136 1.396907 0.660000
-1.391137 1.746907 0.790000
-1.391137 2.746907 -0.210000
-1.391137 1.746907 -0.210000
-1.391137 2.746907 0.790000
-0.391137 2.746907 -0.210000
-1.391137 2.746907 -0.210000
-0.391137 2.746907 0.790000
-0.391137 1.746907 -0.210000
-0.391137 2.746907 -0.210000
-0.391137 1.746907 0.790000
-1.391137 1.746907 -0.210000
-0.391137 1.746907 -0.210000
-0.391137 2.746907 -0.210000
-1.391137 1.746907 -0.210000
-1.391137 2.746907 -0.210000
-1.391137 2.746907 0.790000
-0.391137 1.746907 0.790000
-0.391137 2.746907 0.790000
0.178864 1.386907 0.780000
0.178864 2.386907 -0.220000
0.178864 1.386907 -0.220000
0.178864 2.386907 0.780000
1.178864 2.386907 -0.220000
0.178864 2.386907 -0.220000
1.178864 2.386907 0.780000
1.178864 1.386907 -0.220000
1.178864 2.386907 -0.220000
1.178864 1.386907 0.780000
0.178864 1.386907 -0.220000
1.178864 1.386907 -0.220000
1.178864 2.386907 -0.220000
0.178864 1.386907 -0.220000
0.178864 2.386907 -0.220000
0.178864 2.386907 0.780000
1.178864 1.386907 0.780000
1.178864 2.386907 0.780000
1.308864 0.456907 0.210000
1.308864 1.456907 -0.790000
1.308864 0.456907 -0.790000
1.308864 1.456907 0.210000
2.308864 1.456907 -0.790000
1.308864 1.456907 -0.790000
2.308864 1.456907 0.210000
2.308864 0.456907 -0.790000
2.308864 1.456907 -0.790000
2.308864 0.456907 0.210000
1.308864 0.456907 -0.790000
2.308864 0.456907 -0.790000
2.308864 1.456907 -0.790000
1.308864 0.456907 -0.790000
1.308864 1.456907 -0.790000
1.308864 1.456907 0.210000
2.308864 0.456907 0.210000
2.308864 1.456907 0.210000
2.348864 -2.343094 0.210000
2.348864 -1.343093 -0.790000
2.348864 -2.343094 -0.790000
2.348864 -1.343093 0.210000
3.348864 -1.343093 -0.790000
2.348864 -1.343093 -0.790000
3.348864 -1.343093 0.210000
3.348864 -2.343094 -0.790000
3.348864 -1.343093 -0.790000
3.348864 -2.343094 0.210000
2.348864 -2.343094 -0.790000
3.348864 -2.343094 -0.790000
3.348864 -1.343093 -0.790000
2.348864 -2.343094 -0.790000
2.348864 -1.343093 -0.790000
2.348864 -1.343093 0.210000
3.348864 -2.343094 0.210000
3.348864 -1.343093 0.210000
-3.521136 2.886907 0.440000
-2.521136 2.886907 0.440000
-2.521136 1.886907 0.440000
-3.521136 1.886907 0.440000
-2.521136 1.886907 -0.560000
-3.521136 1.886907 0.440000
-4.131137 -0.173093 0.480000
-3.131137 -0.173093 0.480000
-3.131137 -1.173093 0.480000
-4.131137 -1.173093 0.480000
-3.131137 -1.173093 -0.520000
-4.131137 -1.173093 0.480000
1.378864 -2.793093 0.510000
2.378864 -2.793093 0.510000
2.378864 -3.793093 0.510000
1.378864 -3.793093 0.510000
2.378864 -3.793093 -0.490000
1.378864 -3.793093 0.510000
2.538864 -0.023093 0.690000
3.538864 -0.023093 0.690000
3.538864 -1.023093 0.690000
2.538864 -1.023093 0.690000
3.538864 -1.023093 -0.310000
2.538864 -1.023093 0.690000
-4.141136 1.396907 0.660000
-3.141136 1.396907 0.660000
-3.141136 0.396907 0.660000
-4.141136 0.396907 0.660000
-3.141136 0.396907 -0.340000
-4.141136 0.396907 0.660000
-1.391137 2.746907 0.790000
-0.391137 2.746907 0.790000
-0.391137 1.746907 0.790000
-1.391137 1.746907 0.790000
-0.391137 1.746907 -0.210000
-1.391137 1.746907 0.790000
0.178864 2.386907 0.780000
1.178864 2.386907 0.780000
1.178864 1.386907 0.780000
0.178864 1.386907 0.780000
1.178864 1.386907 -0.220000
0.178864 1.386907 0.780000
1.308864 1.456907 0.210000
2.308864 1.456907 0.210000
2.308864 0.456907 0.210000
1.308864 0.456907 0.210000
2.308864 0.456907 -0.790000
1.308864 0.456907 0.210000
2.348864 -1.343093 0.210000
3.348864 -1.343093 0.210000
3.348864 -2.343094 0.210000
2.348864 -2.343094 0.210000
3.348864 -2.343094 -0.790000
2.348864 -2.343094 0.210000
3 0 1 2
3 3 4 5
3 6 7 8
3 9 10 11
3 12 13 14
3 15 16 17
3 18 19 20
3 21 22 23
3 24 25 26
3 27 28 29
3 30 31 32
3 33 34 35
3 36 37 38
3 39 40 41
3 42 43 44
3 45 46 47
3 48 49 50
3 51 52 53
3 54 55 56
3 57 58 59
3 60 61 62
3 63 64 65
3 66 67 68
3 69 70 71
3 72 73 74
3 75 76 77
3 78 79 80
3 81 82 83
3 84 85 86
3 87 88 89
3 90 91 92
3 93 94 95
3 96 97 98
3 99 100 101
3 102 103 104
3 105 106 107
3 108 109 110
3 111 112 113
3 114 115 116
3 117 118 119
3 120 121 122
3 123 124 125
3 126 127 128
3 129 130 131
3 132 133 134
3 135 136 137
3 138 139 140
3 141 142 143
3 144 145 146
3 147 148 149
3 150 151 152
3 153 154 155
3 156 157 158
3 159 160 161
3 0 162 1
3 3 163 4
3 6 164 7
3 9 165 10
3 12 166 13
3 15 167 16
3 18 168 19
3 21 169 22
3 24 170 25
3 27 171 28
3 30 172 31
3 33 173 34
3 36 174 37
3 39 175 40
3 42 176 43
3 45 177 46
3 48 178 49
3 51 179 52
3 54 180 55
3 57 181 58
3 60 182 61
3 63 183 64
3 66 184 67
3 69 185 70
3 72 186 73
3 75 187 76
3 78 188 79
3 81 189 82
3 84 190 85
3 87 191 88
3 90 192 91
3 93 193 94
3 96 194 97
3 99 195 100
3 102 196 103
3 105 197 106
3 108 198 109
3 111 199 112
3 114 200 115
3 117 201 118
3 120 202 121
3 123 203 124
3 126 204 127
3 129 205 130
3 132 206 133
3 135 207 136
3 138 208 139
3 141 209 142
3 144 210 145
3 147 211 148
3 150 212 151
3 153 213 154
3 156 214 157
3 159 215 160
