ply
format ascii 1.0
comment Created by Blender 2.79 (sub 0) - www.blender.org, source file: 'bunny-behind-background .blend'
element vertex 48
property float x
property float y
property float z
element face 72
property list uchar int vertex_indices
end_header
-5.107594 -0.579576 0.228372
-5.107594 1.420424 -1.771628
-5.107594 -0.579576 -1.771628
-5.107594 1.420424 0.228372
-3.107594 1.420424 -1.771628
-3.107594 1.420424 0.228372
-3.107594 -0.579576 -1.771628
-3.107594 -0.579576 0.228372
-2.967594 -5.289577 0.348372
-2.967594 -3.289577 -1.651628
-2.967594 -5.289577 -1.651628
-2.967594 -3.289577 0.348372
-0.967594 -3.289577 -1.651628
-0.967594 -3.289577 0.348372
-0.967594 -5.289577 -1.651628
-0.967594 -5.289577 0.348372
0.472405 -5.229576 0.348372
0.472405 -3.229576 -1.651628
0.472405 -5.229576 -1.651628
0.472405 -3.229576 0.348372
2.472405 -3.229576 -1.651628
2.472405 -3.229576 0.348372
2.472405 -5.229576 -1.651628
2.472405 -5.229576 0.348372
2.972405 -0.709576 0.618372
2.972405 1.290424 -1.381628
2.972405 -0.709576 -1.381628
2.972405 1.290424 0.618372
4.972405 1.290424 -1.381628
4.972405 1.290424 0.618372
4.972405 -0.709576 -1.381628
4.972405 -0.709576 0.618372
-3.447594 3.280423 -0.101628
-3.447594 5.280423 -2.101628
-3.447594 3.280423 -2.101628
-3.447594 5.280423 -0.101628
-1.447594 5.280423 -2.101628
-1.447594 5.280423 -0.101628
-1.447594 3.280423 -2.101628
-1.447594 3.280423 -0.101628
0.472405 3.020423 0.348372
0.472405 5.020423 -1.651628
0.472405 3.020423 -1.651628
0.472405 5.020423 0.348372
2.472405 5.020423 -1.651628
2.472405 5.020423 0.348372
2.472405 3.020423 -1.651628
2.472405 3.020423 0.348372
3 0 1 2
3 3 4 1
3 5 6 4
3 7 2 6
3 4 2 1
3 3 7 5
3 8 9 10
3 11 12 9
3 13 14 12
3 15 10 14
3 12 10 9
3 11 15 13
3 16 17 18
3 19 20 17
3 21 22 20
3 23 18 22
3 20 18 17
3 19 23 21
3 24 25 26
3 27 28 25
3 29 30 28
3 31 26 30
3 28 26 25
3 27 31 29
3 32 33 34
3 35 36 33
3 37 38 36
3 39 34 38
3 36 34 33
3 35 39 37
3 40 41 42
3 43 44 41
3 45 46 44
3 47 42 46
3 44 42 41
3 43 47 45
3 0 3 1
3 3 5 4
3 5 7 6
3 7 0 2
3 4 6 2
3 3 0 7
3 8 11 9
3 11 13 12
3 13 15 14
3 15 8 10
3 12 14 10
3 11 8 15
3 16 19 17
3 19 21 20
3 21 23 22
3 23 16 18
3 20 22 18
3 19 16 23
3 24 27 25
3 27 29 28
3 29 31 30
3 31 24 26
3 28 30 26
3 27 24 31
3 32 35 33
3 35 37 36
3 37 39 38
3 39 32 34
3 36 38 34
3 35 32 39
3 40 43 41
3 43 45 44
3 45 47 46
3 47 40 42
3 44 46 42
3 43 40 47
