ply
format ascii 1.0
comment Created by Blender 2.79 (sub 0) - www.blender.org, source file: 'simple-only-background.blend'
element vertex 96
property float x
property float y
property float z
element face 48
property list uchar int vertex_indices
end_header
-0.791131 0.686420 -0.394695
-0.791131 2.686420 -2.394695
-0.791131 0.686420 -2.394695
-0.791131 2.686420 -0.394695
1.208869 2.686420 -2.394695
-0.791131 2.686420 -2.394695
1.208869 2.686420 -0.394695
1.208869 0.686420 -2.394695
1.208869 2.686420 -2.394695
1.208869 0.686420 -0.394695
-0.791131 0.686420 -2.394695
1.208869 0.686420 -2.394695
1.208869 2.686420 -2.394695
-0.791131 0.686420 -2.394695
-0.791131 2.686420 -2.394695
-0.791131 2.686420 -0.394695
1.208869 0.686420 -0.394695
1.208869 2.686420 -0.394695
-2.288110 0.512912 3.128475
-2.288110 2.512912 1.128475
-2.288110 0.512912 1.128475
-2.288110 2.512912 3.128475
-0.288110 2.512912 1.128475
-2.288110 2.512912 1.128475
-0.288110 2.512912 3.128475
-0.288110 0.512912 1.128475
-0.288110 2.512912 1.128475
-0.288110 0.512912 3.128475
-2.288110 0.512912 1.128475
-0.288110 0.512912 1.128475
-0.288110 2.512912 1.128475
-2.288110 0.512912 1.128475
-2.288110 2.512912 1.128475
-2.288110 2.512912 3.128475
-0.288110 0.512912 3.128475
-0.288110 2.512912 3.128475
-0.128445 0.692919 3.165289
-0.128445 2.692919 1.165289
-0.128445 0.692919 1.165289
-0.128445 2.692919 3.165289
1.871555 2.692919 1.165289
-0.128445 2.692919 1.165289
1.871555 2.692919 3.165289
1.871555 0.692919 1.165289
1.871555 2.692919 1.165289
1.871555 0.692919 3.165289
-0.128445 0.692919 1.165289
1.871555 0.692919 1.165289
1.871555 2.692919 1.165289
-0.128445 0.692919 1.165289
-0.128445 2.692919 1.165289
-0.128445 2.692919 3.165289
1.871555 0.692919 3.165289
1.871555 2.692919 3.165289
-3.801131 0.486420 -0.414696
-3.801131 2.486420 -2.414696
-3.801131 0.486420 -2.414696
-3.801131 2.486420 -0.414696
-1.801131 2.486420 -2.414696
-3.801131 2.486420 -2.414696
-1.801131 2.486420 -0.414696
-1.801131 0.486420 -2.414696
-1.801131 2.486420 -2.414696
-1.801131 0.486420 -0.414696
-3.801131 0.486420 -2.414696
-1.801131 0.486420 -2.414696
-1.801131 2.486420 -2.414696
-3.801131 0.486420 -2.414696
-3.801131 2.486420 -2.414696
-3.801131 2.486420 -0.414696
-1.801131 0.486420 -0.414696
-1.801131 2.486420 -0.414696
-0.791131 2.686420 -0.394695
1.208869 2.686420 -0.394695
1.208869 0.686420 -0.394695
-0.791131 0.686420 -0.394695
1.208869 0.686420 -2.394695
-0.791131 0.686420 -0.394695
-2.288110 2.512912 3.128475
-0.288110 2.512912 3.128475
-0.288110 0.512912 3.128475
-2.288110 0.512912 3.128475
-0.288110 0.512912 1.128475
-2.288110 0.512912 3.128475
-0.128445 2.692919 3.165289
1.871555 2.692919 3.165289
1.871555 0.692919 3.165289
-0.128445 0.692919 3.165289
1.871555 0.692919 1.165289
-0.128445 0.692919 3.165289
-3.801131 2.486420 -0.414696
-1.801131 2.486420 -0.414696
-1.801131 0.486420 -0.414696
-3.801131 0.486420 -0.414696
-1.801131 0.486420 -2.414696
-3.801131 0.486420 -0.414696
3 0 1 2
3 3 4 5
3 6 7 8
3 9 10 11
3 12 13 14
3 15 16 17
3 18 19 20
3 21 22 23
3 24 25 26
3 27 28 29
3 30 31 32
3 33 34 35
3 36 37 38
3 39 40 41
3 42 43 44
3 45 46 47
3 48 49 50
3 51 52 53
3 54 55 56
3 57 58 59
3 60 61 62
3 63 64 65
3 66 67 68
3 69 70 71
3 0 72 1
3 3 73 4
3 6 74 7
3 9 75 10
3 12 76 13
3 15 77 16
3 18 78 19
3 21 79 22
3 24 80 25
3 27 81 28
3 30 82 31
3 33 83 34
3 36 84 37
3 39 85 40
3 42 86 43
3 45 87 46
3 48 88 49
3 51 89 52
3 54 90 55
3 57 91 58
3 60 92 61
3 63 93 64
3 66 94 67
3 69 95 70
